<svg xmlns="http://www.w3.org/2000/svg" width="16" height="16" fill="none"><path fill="#fff" d="M0 3.5a1 1 0 0 1 1-1h14a1 1 0 0 1 1 1v9a1 1 0 0 1-1 1H1a1 1 0 0 1-1-1v-9z"/><path fill="#fff" d="M12 11.333a.667.667 0 0 1-.667.667H4V4h7.333c.368 0 .667.298.667.667v6.666z"/><path fill="#0690ff" d="M13 13v-1.585h-1.206l-.622-.688-.625.688H6.571v-3.2H5.287L6.88 4.611h1.536l.549 1.234V4.612h1.9l.33.93.333-.93H13V3H3v10Zm-1.004-1.985H13l-1.328-1.408L13 8.217h-.987l-.82.894-.812-.895H9.378l1.32 1.4-1.32 1.399h.975l.824-.904zm.235-1.406.769.816V8.797Zm-4.472.758v-.436h1.578V9.3H7.76v-.438h1.619v-.647H6.995v2.799h2.383v-.648h-1.62Zm4.485-2.557H13V5.011h-1.175l-.629 1.744-.622-1.744H9.378V7.81h.756V5.851l.718 1.959h.673l.719-1.962zm-3.725 0h.859L8.142 5.011H7.16L5.925 7.81h.84l.231-.56h1.288l.236.56Zm-.5-1.188h-.76l.38-.915Z" style="stroke-width:1.25"/><path fill="#eeeff3" fill-rule="evenodd" d="M15 3H1a.5.5 0 0 0-.5.5v9a.5.5 0 0 0 .5.5h14a.5.5 0 0 0 .5-.5v-9A.5.5 0 0 0 15 3zM1 2.5a1 1 0 0 0-1 1v9a1 1 0 0 0 1 1h14a1 1 0 0 0 1-1v-9a1 1 0 0 0-1-1z" clip-rule="evenodd"/></svg>