<svg xmlns="http://www.w3.org/2000/svg" width="16" height="16" fill="none"><path fill="#fff" d="M0 3.5a1 1 0 0 1 1-1h14a1 1 0 0 1 1 1v9a1 1 0 0 1-1 1H1a1 1 0 0 1-1-1v-9z"/><path fill="#FFFFFE" fill-rule="evenodd" d="M3.667 8.07a3.86 3.86 0 0 1 3.86-3.863 3.86 3.86 0 0 1 3.858 3.862 3.86 3.86 0 0 1-3.859 3.862A3.86 3.86 0 0 1 3.667 8.07z" clip-rule="evenodd"/><path fill="#0167aa" fill-rule="evenodd" d="M10.178 7.991a2.914 2.914 0 0 0-1.87-2.717v5.434a2.914 2.914 0 0 0 1.87-2.717Zm-3.952 2.716V5.274a2.916 2.916 0 0 0-1.869 2.717 2.915 2.915 0 0 0 1.869 2.716zm1.041-7.31a4.59 4.59 0 0 0-4.588 4.594 4.59 4.59 0 0 0 4.588 4.592 4.593 4.593 0 0 0 0-9.185zm-.01 9.62C4.484 13.03 2.2 10.781 2.2 8.044c0-2.993 2.283-5.062 5.056-5.062h1.3c2.742 0 5.244 2.07 5.244 5.062 0 2.737-2.502 4.973-5.243 4.973H7.255z" clip-rule="evenodd" style="stroke-width:1.25433"/><path fill="#eeeff3" fill-rule="evenodd" d="M15 3H1a.5.5 0 0 0-.5.5v9a.5.5 0 0 0 .5.5h14a.5.5 0 0 0 .5-.5v-9A.5.5 0 0 0 15 3zM1 2.5a1 1 0 0 0-1 1v9a1 1 0 0 0 1 1h14a1 1 0 0 0 1-1v-9a1 1 0 0 0-1-1z" clip-rule="evenodd"/></svg>