<svg xmlns="http://www.w3.org/2000/svg" width="16" height="16" fill="none"><path fill="#fff" d="M0 3.5a1 1 0 0 1 1-1h14a1 1 0 0 1 1 1v9a1 1 0 0 1-1 1H1a1 1 0 0 1-1-1v-9z"/><path fill="#EEEFF3" fill-rule="evenodd" d="M15 3H1a.5.5 0 0 0-.5.5v9a.5.5 0 0 0 .5.5h14a.5.5 0 0 0 .5-.5v-9A.5.5 0 0 0 15 3zM1 2.5a1 1 0 0 0-1 1v9a1 1 0 0 0 1 1h14a1 1 0 0 0 1-1v-9a1 1 0 0 0-1-1H1z" clip-rule="evenodd"/><path fill="url(#a)" d="M5.834 3.638H2.223v8.714h3.61V3.638Z" style="fill:url(#a);stroke-width:1.11172"/><path fill="url(#b)" d="M9.848 3.556H6.076v8.796H9.85V3.556Z" style="fill:url(#b);stroke-width:1.11172"/><path fill="url(#c)" d="M13.782 3.638H10.01v8.754h3.77z" style="fill:url(#c);stroke-width:1.11172"/><path fill="#fff" fill-rule="evenodd" d="M14.468 10.983c0 .545-.225 1.076-.615 1.454a2.02 2.02 0 0 1-1.397.566H1.585c-.007 0-.045.006-.05 0-.006-.005 0-.044 0-.05v-7.89c0-.332.067-.657.216-.955.24-.474.667-.845 1.172-1.01.224-.072.455-.098.69-.098h10.855ZM2.283 8.693c-.024-.011-.024-.007-.029-.024-.002-.011 0-.027 0-.037V5.298c0-.081-.002-.163.001-.245A1.444 1.444 0 0 1 3.543 3.68c.169-.016.341-.006.51-.006h1.692c.008 0 .048-.006.053 0 .004.002 0 .022 0 .026v7.188a1.459 1.459 0 0 1-.468 1.065 1.434 1.434 0 0 1-.776.364c-.173.023-.351.013-.526.013H2.282c-.028 0-.022.005-.028-.01-.003-.011 0-.03 0-.04V9.29c.28.076.573.118.86.147.28.028.564.04.846.027.393-.02.824-.082 1.148-.323a.94.94 0 0 0 .31-.389c.062-.15.085-.311.085-.472V6.636c0-.015.003-.016-.007-.022-.01-.005-.04 0-.051 0H4.329c-.017 0-.056-.005-.063.006-.005.009 0 .036 0 .048v1.62a.706.706 0 0 1-.218.53c-.199.178-.47.199-.722.178a2.807 2.807 0 0 1-.845-.214 4.069 4.069 0 0 1-.198-.089ZM6.26 6.981a1.322 1.322 0 0 0-.03.025V5.382c0-.125-.006-.252.004-.375a1.453 1.453 0 0 1 1.248-1.322c.162-.02.327-.011.49-.011h1.733c.011 0 .062-.007.068 0 .003.004 0 .026 0 .032v7.166a1.46 1.46 0 0 1-.8 1.309 1.508 1.508 0 0 1-.681.149H6.35c-.034 0-.072.006-.106 0-.021-.004-.01.004-.014-.01-.004-.008 0-.024 0-.033V9c.234.202.532.317.83.382.227.051.46.075.692.084a5.379 5.379 0 0 0 1.37-.12c.058-.01.116-.024.173-.036.014-.003.072-.009.08-.02.005-.008 0-.04 0-.05v-.56a3.071 3.071 0 0 1-.775.277c-.33.064-.696.083-1.012-.053a.91.91 0 0 1-.539-.777c-.033-.353.072-.725.374-.934.31-.216.72-.219 1.081-.16a2.848 2.848 0 0 1 .87.293v-.56c0-.01.006-.044 0-.05-.008-.012-.064-.017-.08-.02a6.718 6.718 0 0 0-.767-.132 5.354 5.354 0 0 0-.679-.027 4.18 4.18 0 0 0-.687.065 2.128 2.128 0 0 0-.798.302 1.436 1.436 0 0 0-.103.078Zm4.647 1.196h.824c.102 0 .199.026.275.096a.387.387 0 0 1-.059.612.478.478 0 0 1-.254.053h-.687c-.023 0-.09.01-.097-.007-.006-.011 0-.036 0-.047v-.708Zm1.117-.861a.36.36 0 0 1-.087.324.38.38 0 0 1-.273.108h-.693c-.01 0-.05.007-.06 0-.01-.008-.003-.061-.003-.075v-.576c0-.011-.005-.034 0-.045.004-.01.008-.006.024-.006h.633c.047 0 .093-.003.14.002a.357.357 0 0 1 .253.129.345.345 0 0 1 .067.139zm1.72-3.642h.005v7.211c-.002.456-.216.89-.581 1.161a1.482 1.482 0 0 1-.906.284h-1.941c-.017 0-.107.01-.116 0-.004-.006 0-.03 0-.035V9.411c0-.016-.003-.017.008-.022.017-.008.056 0 .073 0h2.01c.102 0 .205.002.307-.011a.943.943 0 0 0 .558-.251.651.651 0 0 0 .125-.732c-.101-.207-.311-.33-.527-.386a1.267 1.267 0 0 0-.205-.035c-.004 0-.026 0-.03-.002-.012-.015.011-.018.017-.02.043-.014.091-.018.135-.031.226-.068.422-.23.482-.467a.623.623 0 0 0-.222-.656.975.975 0 0 0-.503-.174c-.181-.016-.365-.01-.546-.01h-1.66c-.03 0-.022-.008-.022-.036V5.203a1.45 1.45 0 0 1 .377-1.06 1.44 1.44 0 0 1 .915-.463c.202-.02.411-.006.614-.006z" clip-rule="evenodd" style="stroke-width:1.11172"/><defs><linearGradient id="a" x1="2.801" x2="6.048" y1="7.463" y2="7.463" gradientTransform="matrix(1.11173 0 0 1.11173 -.89 -.891)" gradientUnits="userSpaceOnUse"><stop stop-color="#1D2970"/><stop offset="1" stop-color="#006DBA"/></linearGradient><linearGradient id="b" x1="6.266" x2="9.659" y1="7.422" y2="7.422" gradientTransform="matrix(1.11173 0 0 1.11173 -.89 -.891)" gradientUnits="userSpaceOnUse"><stop stop-color="#6F2B2F"/><stop offset="1" stop-color="#E30138"/></linearGradient><linearGradient id="c" x1="9.805" x2="13.197" y1="7.479" y2="7.479" gradientTransform="matrix(1.11173 0 0 1.11173 -.89 -.891)" gradientUnits="userSpaceOnUse"><stop stop-color="#007B40"/><stop offset="1" stop-color="#55B330"/></linearGradient></defs></svg>