<svg xmlns="http://www.w3.org/2000/svg" width="16" height="16" fill="none"><path fill="#fff" d="M0 3.5a1 1 0 0 1 1-1h14a1 1 0 0 1 1 1v9a1 1 0 0 1-1 1H1a1 1 0 0 1-1-1v-9z"/><path fill="#EEEFF3" fill-rule="evenodd" d="M15 3H1a.5.5 0 0 0-.5.5v9a.5.5 0 0 0 .5.5h14a.5.5 0 0 0 .5-.5v-9A.5.5 0 0 0 15 3zM1 2.5a1 1 0 0 0-1 1v9a1 1 0 0 0 1 1h14a1 1 0 0 0 1-1v-9a1 1 0 0 0-1-1H1z" clip-rule="evenodd"/><g fill-rule="evenodd" clip-rule="evenodd"><path fill="#6c6bbd" d="M7.378 11.535h3.245V5.702H7.378Z" style="stroke-width:1.20015" transform="translate(-1.001 -.619)"/><path fill="#eb001b" d="M7.584 8.619c0-1.182.554-2.236 1.417-2.917a3.708 3.708 0 1 0 0 5.833A3.702 3.702 0 0 1 7.584 8.62z" style="stroke-width:1.20015" transform="translate(-1.001 -.619)"/><path fill="#0099df" d="M14.885 10.917v-.144h-.036l-.045.1-.043-.1h-.037v.144h.026v-.108l.041.094h.028l.04-.094v.108zm-.238 0v-.12h.048v-.024h-.122v.024h.048v.12zm.354-2.298a3.708 3.708 0 0 1-6 2.916 3.702 3.702 0 0 0 1.416-2.916A3.706 3.706 0 0 0 9 5.702a3.708 3.708 0 0 1 6 2.917z" style="stroke-width:1.20015" transform="translate(-1.001 -.619)"/></g></svg>