<svg xmlns="http://www.w3.org/2000/svg" width="16" height="16" fill="none"><path fill="#fff" d="M0 3.5a1 1 0 0 1 1-1h14a1 1 0 0 1 1 1v9a1 1 0 0 1-1 1H1a1 1 0 0 1-1-1v-9z"/><path fill="#EEEFF3" fill-rule="evenodd" d="M15 3H1a.5.5 0 0 0-.5.5v9a.5.5 0 0 0 .5.5h14a.5.5 0 0 0 .5-.5v-9A.5.5 0 0 0 15 3zM1 2.5a1 1 0 0 0-1 1v9a1 1 0 0 0 1 1h14a1 1 0 0 0 1-1v-9a1 1 0 0 0-1-1H1z" clip-rule="evenodd"/><g fill-rule="evenodd" clip-rule="evenodd"><path fill="#01798a" d="M9.846 2.999c-.446.014-.992.366-1.091.8l-1.51 6.677c-.099.437.172.793.607.8h3.352a1.067 1.067 0 0 0 .942-.797l1.51-6.678c.101-.441-.177-.801-.619-.801h-3.19Z" style="stroke-width:1.18266" transform="translate(.801 .863)"/><path fill="#024381" d="m7.246 10.476 1.509-6.678c.099-.434.645-.785 1.084-.798L8.57 2.998H6.284c-.44.008-.993.363-1.092.8l-1.509 6.676c-.1.438.17.794.606.801H7.85c-.435-.006-.706-.363-.607-.8" style="stroke-width:1.18266" transform="translate(.801 .863)"/><path fill="#dd0228" d="m3.683 10.476 1.51-6.678c.099-.437.652-.79 1.091-.8H3.357c-.441 0-1.009.358-1.11.8L.74 10.476a.839.839 0 0 0-.018.12v.123c.03.32.273.551.623.557H4.29c-.435-.006-.706-.363-.605-.8" style="stroke-width:1.18266" transform="translate(.801 .863)"/><path fill="#fff" d="M6.346 7.864H6.4c.05 0 .085-.017.102-.05l.144-.216h.386l-.08.142h.46l-.058.217h-.55c-.063.094-.141.14-.235.134h-.286Zm-.063.311h1.012l-.064.237h-.409l-.061.227h.396l-.065.236h-.396l-.093.336c-.022.057.007.083.09.076h.323l-.06.22h-.619c-.118 0-.158-.067-.12-.202l.118-.43H6.08l.063-.236H6.4l.061-.227H6.22l.065-.237zm1.617-.58-.017.14s.192-.144.365-.144h.641l-.244.887c-.022.102-.108.153-.263.153h-.726l-.17.623c-.01.033.003.05.04.05h.143l-.052.194h-.364c-.14 0-.198-.042-.174-.126l.481-1.776Zm.544.252H7.87l-.069.24s.095-.069.256-.071c.158-.003.34 0 .34 0zm-.209.555c.043.006.067-.01.069-.05l.035-.126h-.573l-.047.178h.516zm-.386.288h.33l-.006.142h.087c.045 0 .068-.013.068-.042l.026-.092h.274l-.037.135c-.03.112-.113.171-.247.177h-.176v.244c-.004.039.032.059.104.059h.166l-.054.194h-.396c-.111.005-.165-.047-.165-.16ZM3.844 6.413a.808.808 0 0 1-.31.509c-.16.118-.365.177-.617.177-.237 0-.412-.061-.523-.182a.473.473 0 0 1-.114-.328.875.875 0 0 1 .018-.176l.27-1.295h.406L2.709 6.4a.414.414 0 0 0-.012.098c0 .065.017.118.05.161.047.063.125.093.234.093a.49.49 0 0 0 .307-.092.423.423 0 0 0 .156-.26l.265-1.28h.405Zm1.704-.51h.319L5.618 7.06H5.3Zm.1-.42h.32l-.059.28h-.32Zm.5 1.488a.426.426 0 0 1-.125-.321.752.752 0 0 1 .016-.164.784.784 0 0 1 .241-.447.647.647 0 0 1 .448-.165c.141 0 .255.039.339.118.083.082.124.19.124.328a.79.79 0 0 1-.019.165.763.763 0 0 1-.24.441.65.65 0 0 1-.445.164.473.473 0 0 1-.339-.119Zm.606-.228a.564.564 0 0 0 .12-.275.682.682 0 0 0 .012-.114.234.234 0 0 0-.054-.166c-.037-.04-.09-.059-.154-.059a.278.278 0 0 0-.217.093.582.582 0 0 0-.123.28.413.413 0 0 0-.011.11c0 .07.019.126.055.165.036.038.088.057.155.057a.28.28 0 0 0 .217-.09m2.498 1.13.077-.27h.388l-.016.1s.197-.1.34-.1h.48l-.078.27h-.074l-.362 1.273h.076l-.072.252h-.076l-.03.11h-.376l.031-.11h-.74l.072-.252h.074l.362-1.272h-.076zm.42 0-.1.344s.169-.064.314-.083c.032-.12.075-.26.075-.26h-.29Zm-.145.506-.1.36s.187-.092.316-.1c.037-.14.074-.26.074-.26zm.072.766.075-.261h-.29l-.075.26h.29Zm.937-1.56h.364l.015.135c-.002.034.02.05.062.05h.064l-.065.228h-.268c-.101.005-.153-.034-.16-.118l-.011-.295zm1.074.489-.07.245h-.375l-.065.227h.375l-.069.243h-.419l-.094.143h.204l.048.288c.006.028.03.041.074.041h.063l-.066.237h-.225c-.117.006-.177-.033-.182-.119l-.055-.26-.185.277a.201.201 0 0 1-.204.11h-.343l.067-.237h.107c.044 0 .08-.018.114-.059l.292-.42h-.376l.07-.244h.406l.065-.227h-.408l.071-.245zM4.218 5.903h.287l-.033.167.042-.047a.446.446 0 0 1 .338-.15c.12 0 .208.036.262.107.055.07.069.167.043.292L5 7.06h-.296l.143-.714c.015-.074.012-.13-.012-.165-.022-.035-.065-.052-.126-.052a.276.276 0 0 0-.192.071.35.35 0 0 0-.103.195l-.131.665h-.296Zm3.287 0h.287l-.033.167.041-.047a.447.447 0 0 1 .34-.15c.119 0 .207.036.261.107.053.07.069.167.043.292l-.158.788h-.295l.143-.714c.015-.074.012-.13-.012-.165s-.065-.052-.127-.052a.278.278 0 0 0-.191.071.345.345 0 0 0-.103.195l-.133.665h-.294l.23-1.157m1.419-.717h.832c.161 0 .284.036.37.107a.389.389 0 0 1 .127.311v.004a1.116 1.116 0 0 1-.005.086 1.226 1.226 0 0 1-.015.095.717.717 0 0 1-.722.593h-.447l-.138.678h-.387zm.208.871h.37a.36.36 0 0 0 .23-.067.35.35 0 0 0 .112-.206l.008-.047.002-.04c0-.067-.023-.114-.07-.145a.422.422 0 0 0-.225-.045h-.314l-.113.55m2.851 1.227c-.122.26-.239.411-.307.482-.068.07-.204.232-.53.22l.028-.199c.274-.085.424-.467.509-.636l-.102-1.244.213-.004h.177l.02.781.335-.78h.338l-.68 1.38m-.947-1.286-.135.092c-.14-.11-.268-.177-.517-.062-.337.156-.618 1.355.31.96l.053.063.366.01.24-1.091zm-.208.596c-.06.173-.19.287-.292.254-.103-.03-.14-.198-.08-.371.058-.174.19-.289.293-.255.101.031.14.198.079.372z" style="stroke-width:1.18266" transform="translate(.801 .863)"/></g></svg>