<svg xmlns="http://www.w3.org/2000/svg" width="16" height="16" fill="none"><path fill="#fff" d="M0 3.5a1 1 0 0 1 1-1h14a1 1 0 0 1 1 1v9a1 1 0 0 1-1 1H1a1 1 0 0 1-1-1v-9z"/><path fill="#182e66" d="M4.752 5.688 3.579 8.93l-.138-.698-.414-2.12s-.05-.424-.585-.424H.502l-.021.079.015.004c.1.025.66.173 1.286.589l1.055 4.042h1.282l1.957-4.714Zm2.266 4.714H5.727l.807-4.714h1.29z" style="stroke-width:1.25316"/><path fill="#182e66" fill-rule="evenodd" d="m14.574 5.688.945 4.714h-1.432l-.138-.7h-1.5l-.247.7h-1.228l1.758-4.363s.106-.351.544-.351zm-1.006 1.45-.672 1.813h1.049z" clip-rule="evenodd" style="stroke-width:1.25316"/><path fill="#182e66" d="m11.155 6.865.167-.978s-.514-.199-1.053-.199c-.58 0-1.958.257-1.958 1.508 0 .683.544.973 1.002 1.219.331.177.616.33.616.589 0 .619-1.452.507-1.93.119l-.174 1.021s.522.258 1.32.258c.799 0 2.003-.42 2.003-1.559 0-.714-.593-1.037-1.064-1.294-.31-.17-.568-.31-.568-.515 0-.514 1.14-.449 1.64-.17z" style="stroke-width:1.25316"/><path fill="#eeeff3" fill-rule="evenodd" d="M15 3H1a.5.5 0 0 0-.5.5v9a.5.5 0 0 0 .5.5h14a.5.5 0 0 0 .5-.5v-9A.5.5 0 0 0 15 3ZM1 2.5a1 1 0 0 0-1 1v9a1 1 0 0 0 1 1h14a1 1 0 0 0 1-1v-9a1 1 0 0 0-1-1z" clip-rule="evenodd"/></svg>